<?xml version="1.0" encoding="UTF-8"?>
<svg xmlns="http://www.w3.org/2000/svg" xmlns:xlink="http://www.w3.org/1999/xlink" fill-opacity="1" color-rendering="auto" color-interpolation="auto" stroke="black" text-rendering="auto" stroke-linecap="square" width="1159" stroke-miterlimit="10" stroke-opacity="1" shape-rendering="auto" fill="black" stroke-dasharray="none" font-weight="normal" stroke-width="1" height="1005" font-family="'Dialog'" font-style="normal" stroke-linejoin="miter" font-size="12" stroke-dashoffset="0" image-rendering="auto">
  <!--Generated by ySVG 2.5-->
  <defs id="genericDefs"/>
  <g>
    <defs id="defs1">
      <linearGradient x1="91" gradientUnits="userSpaceOnUse" x2="100" y1="228" y2="1126.9166" id="linearGradient1" spreadMethod="reflect">
        <stop stop-opacity="1" stop-color="rgb(232,238,247)" offset="0%"/>
        <stop stop-opacity="1" stop-color="rgb(183,201,227)" offset="100%"/>
      </linearGradient>
      <linearGradient x1="276.75" gradientUnits="userSpaceOnUse" x2="285.75" y1="231" y2="1121.9166" id="linearGradient2" spreadMethod="reflect">
        <stop stop-opacity="1" stop-color="rgb(232,238,247)" offset="0%"/>
        <stop stop-opacity="1" stop-color="rgb(183,201,227)" offset="100%"/>
      </linearGradient>
      <linearGradient x1="48" gradientUnits="userSpaceOnUse" x2="140.5" y1="154.75" y2="204.75" id="linearGradient3" spreadMethod="reflect">
        <stop stop-opacity="1" stop-color="rgb(232,238,247)" offset="0%"/>
        <stop stop-opacity="1" stop-color="rgb(183,201,227)" offset="100%"/>
      </linearGradient>
      <linearGradient x1="464.5" gradientUnits="userSpaceOnUse" x2="473.5" y1="234.75" y2="1118.6666" id="linearGradient4" spreadMethod="reflect">
        <stop stop-opacity="1" stop-color="rgb(232,238,247)" offset="0%"/>
        <stop stop-opacity="1" stop-color="rgb(183,201,227)" offset="100%"/>
      </linearGradient>
      <linearGradient x1="655" gradientUnits="userSpaceOnUse" x2="664" y1="232.75" y2="1118.4166" id="linearGradient5" spreadMethod="reflect">
        <stop stop-opacity="1" stop-color="rgb(232,238,247)" offset="0%"/>
        <stop stop-opacity="1" stop-color="rgb(183,201,227)" offset="100%"/>
      </linearGradient>
      <linearGradient x1="419.75" gradientUnits="userSpaceOnUse" x2="512.25" y1="154.75" y2="204.75" id="linearGradient6" spreadMethod="reflect">
        <stop stop-opacity="1" stop-color="rgb(232,238,247)" offset="0%"/>
        <stop stop-opacity="1" stop-color="rgb(183,201,227)" offset="100%"/>
      </linearGradient>
      <linearGradient x1="236.5" gradientUnits="userSpaceOnUse" x2="329" y1="154.75" y2="204.75" id="linearGradient7" spreadMethod="reflect">
        <stop stop-opacity="1" stop-color="rgb(232,238,247)" offset="0%"/>
        <stop stop-opacity="1" stop-color="rgb(183,201,227)" offset="100%"/>
      </linearGradient>
      <linearGradient x1="831.75" gradientUnits="userSpaceOnUse" x2="840.75" y1="230.25" y2="1118.4166" id="linearGradient8" spreadMethod="reflect">
        <stop stop-opacity="1" stop-color="rgb(232,238,247)" offset="0%"/>
        <stop stop-opacity="1" stop-color="rgb(183,201,227)" offset="100%"/>
      </linearGradient>
      <linearGradient x1="610.25" gradientUnits="userSpaceOnUse" x2="702.75" y1="153.5" y2="203.5" id="linearGradient9" spreadMethod="reflect">
        <stop stop-opacity="1" stop-color="rgb(232,238,247)" offset="0%"/>
        <stop stop-opacity="1" stop-color="rgb(183,201,227)" offset="100%"/>
      </linearGradient>
      <linearGradient x1="789.25" gradientUnits="userSpaceOnUse" x2="881.75" y1="152.5" y2="202.5" id="linearGradient10" spreadMethod="reflect">
        <stop stop-opacity="1" stop-color="rgb(232,238,247)" offset="0%"/>
        <stop stop-opacity="1" stop-color="rgb(183,201,227)" offset="100%"/>
      </linearGradient>
      <linearGradient x1="995.3333" gradientUnits="userSpaceOnUse" x2="1004.3333" y1="232" y2="1120.1666" id="linearGradient11" spreadMethod="reflect">
        <stop stop-opacity="1" stop-color="rgb(232,238,247)" offset="0%"/>
        <stop stop-opacity="1" stop-color="rgb(183,201,227)" offset="100%"/>
      </linearGradient>
      <linearGradient x1="952.8333" gradientUnits="userSpaceOnUse" x2="1045.3334" y1="154.25" y2="204.25" id="linearGradient12" spreadMethod="reflect">
        <stop stop-opacity="1" stop-color="rgb(232,238,247)" offset="0%"/>
        <stop stop-opacity="1" stop-color="rgb(183,201,227)" offset="100%"/>
      </linearGradient>
      <clipPath clipPathUnits="userSpaceOnUse" id="clipPath1">
        <path d="M0 0 L1159 0 L1159 1005 L0 1005 L0 0 Z"/>
      </clipPath>
      <clipPath clipPathUnits="userSpaceOnUse" id="clipPath2">
        <path d="M33 137 L1192 137 L1192 1142 L33 1142 L33 137 Z"/>
      </clipPath>
    </defs>
    <g fill="white" text-rendering="geometricPrecision" shape-rendering="geometricPrecision" transform="translate(-33,-137)" stroke="white">
      <rect x="33" width="1159" height="1005" y="137" clip-path="url(#clipPath2)" stroke="none"/>
    </g>
    <g fill="url(#linearGradient1)" text-rendering="geometricPrecision" shape-rendering="geometricPrecision" transform="matrix(1,0,0,1,-33,-137)" stroke="url(#linearGradient1)">
      <path d="M91 228 L100 228 L100 1126.9166 L91 1126.9166 Z" clip-path="url(#clipPath2)" stroke="none"/>
    </g>
    <g text-rendering="geometricPrecision" stroke-miterlimit="1.45" shape-rendering="geometricPrecision" transform="matrix(1,0,0,1,-33,-137)" stroke-linecap="butt">
      <path fill="none" d="M91 228 L100 228 L100 1126.9166 L91 1126.9166 Z" clip-path="url(#clipPath2)"/>
    </g>
    <g fill="url(#linearGradient2)" text-rendering="geometricPrecision" shape-rendering="geometricPrecision" transform="matrix(1,0,0,1,-33,-137)" stroke="url(#linearGradient2)">
      <path d="M276.75 231 L285.75 231 L285.75 1121.9166 L276.75 1121.9166 Z" clip-path="url(#clipPath2)" stroke="none"/>
    </g>
    <g text-rendering="geometricPrecision" stroke-miterlimit="1.45" shape-rendering="geometricPrecision" transform="matrix(1,0,0,1,-33,-137)" stroke-linecap="butt">
      <path fill="none" d="M276.75 231 L285.75 231 L285.75 1121.9166 L276.75 1121.9166 Z" clip-path="url(#clipPath2)"/>
    </g>
    <g fill="url(#linearGradient3)" text-rendering="geometricPrecision" shape-rendering="geometricPrecision" transform="matrix(1,0,0,1,-33,-137)" stroke="url(#linearGradient3)">
      <path d="M48 154.75 L140.5 154.75 L140.5 204.75 L48 204.75 Z" clip-path="url(#clipPath2)" stroke="none"/>
    </g>
    <g text-rendering="geometricPrecision" stroke-miterlimit="1.45" shape-rendering="geometricPrecision" transform="matrix(1,0,0,1,-33,-137)" stroke-linecap="butt">
      <path fill="none" d="M48 154.75 L140.5 154.75 L140.5 204.75 L48 204.75 Z" clip-path="url(#clipPath2)"/>
      <text x="66.708" xml:space="preserve" y="184.2852" font-family="sans-serif" clip-path="url(#clipPath2)" stroke="none">ns_server</text>
    </g>
    <g fill="url(#linearGradient4)" text-rendering="geometricPrecision" shape-rendering="geometricPrecision" transform="matrix(1,0,0,1,-33,-137)" stroke="url(#linearGradient4)">
      <path d="M464.5 234.75 L473.5 234.75 L473.5 1118.6666 L464.5 1118.6666 Z" clip-path="url(#clipPath2)" stroke="none"/>
    </g>
    <g text-rendering="geometricPrecision" stroke-miterlimit="1.45" shape-rendering="geometricPrecision" transform="matrix(1,0,0,1,-33,-137)" stroke-linecap="butt">
      <path fill="none" d="M464.5 234.75 L473.5 234.75 L473.5 1118.6666 L464.5 1118.6666 Z" clip-path="url(#clipPath2)"/>
    </g>
    <g fill="url(#linearGradient5)" text-rendering="geometricPrecision" shape-rendering="geometricPrecision" transform="matrix(1,0,0,1,-33,-137)" stroke="url(#linearGradient5)">
      <path d="M655 232.75 L664 232.75 L664 1118.4166 L655 1118.4166 Z" clip-path="url(#clipPath2)" stroke="none"/>
    </g>
    <g text-rendering="geometricPrecision" stroke-miterlimit="1.45" shape-rendering="geometricPrecision" transform="matrix(1,0,0,1,-33,-137)" stroke-linecap="butt">
      <path fill="none" d="M655 232.75 L664 232.75 L664 1118.4166 L655 1118.4166 Z" clip-path="url(#clipPath2)"/>
    </g>
    <g fill="url(#linearGradient6)" text-rendering="geometricPrecision" shape-rendering="geometricPrecision" transform="matrix(1,0,0,1,-33,-137)" stroke="url(#linearGradient6)">
      <path d="M419.75 154.75 L512.25 154.75 L512.25 204.75 L419.75 204.75 Z" clip-path="url(#clipPath2)" stroke="none"/>
    </g>
    <g text-rendering="geometricPrecision" stroke-miterlimit="1.45" shape-rendering="geometricPrecision" transform="matrix(1,0,0,1,-33,-137)" stroke-linecap="butt">
      <path fill="none" d="M419.75 154.75 L512.25 154.75 L512.25 204.75 L419.75 204.75 Z" clip-path="url(#clipPath2)"/>
      <text x="449.749" xml:space="preserve" y="170.1523" font-family="sans-serif" clip-path="url(#clipPath2)" stroke="none">Index</text>
      <text x="431.0898" xml:space="preserve" y="184.2852" font-family="sans-serif" clip-path="url(#clipPath2)" stroke="none">Coordinator</text>
      <text x="442.668" xml:space="preserve" y="198.418" font-family="sans-serif" clip-path="url(#clipPath2)" stroke="none">(replica)</text>
    </g>
    <g fill="url(#linearGradient7)" text-rendering="geometricPrecision" shape-rendering="geometricPrecision" transform="matrix(1,0,0,1,-33,-137)" stroke="url(#linearGradient7)">
      <path d="M236.5 154.75 L329 154.75 L329 204.75 L236.5 204.75 Z" clip-path="url(#clipPath2)" stroke="none"/>
    </g>
    <g text-rendering="geometricPrecision" stroke-miterlimit="1.45" shape-rendering="geometricPrecision" transform="matrix(1,0,0,1,-33,-137)" stroke-linecap="butt">
      <path fill="none" d="M236.5 154.75 L329 154.75 L329 204.75 L236.5 204.75 Z" clip-path="url(#clipPath2)"/>
      <text x="266.499" xml:space="preserve" y="170.1523" font-family="sans-serif" clip-path="url(#clipPath2)" stroke="none">Index</text>
      <text x="247.8398" xml:space="preserve" y="184.2852" font-family="sans-serif" clip-path="url(#clipPath2)" stroke="none">Coordinator</text>
      <text x="258.832" xml:space="preserve" y="198.418" font-family="sans-serif" clip-path="url(#clipPath2)" stroke="none">(master)</text>
    </g>
    <g fill="url(#linearGradient8)" text-rendering="geometricPrecision" shape-rendering="geometricPrecision" transform="matrix(1,0,0,1,-33,-137)" stroke="url(#linearGradient8)">
      <path d="M831.75 230.25 L840.75 230.25 L840.75 1118.4166 L831.75 1118.4166 Z" clip-path="url(#clipPath2)" stroke="none"/>
    </g>
    <g text-rendering="geometricPrecision" stroke-miterlimit="1.45" shape-rendering="geometricPrecision" transform="matrix(1,0,0,1,-33,-137)" stroke-linecap="butt">
      <path fill="none" d="M831.75 230.25 L840.75 230.25 L840.75 1118.4166 L831.75 1118.4166 Z" clip-path="url(#clipPath2)"/>
    </g>
    <g fill="url(#linearGradient9)" text-rendering="geometricPrecision" shape-rendering="geometricPrecision" transform="matrix(1,0,0,1,-33,-137)" stroke="url(#linearGradient9)">
      <path d="M610.25 153.5 L702.75 153.5 L702.75 203.5 L610.25 203.5 Z" clip-path="url(#clipPath2)" stroke="none"/>
    </g>
    <g text-rendering="geometricPrecision" stroke-miterlimit="1.45" shape-rendering="geometricPrecision" transform="matrix(1,0,0,1,-33,-137)" stroke-linecap="butt">
      <path fill="none" d="M610.25 153.5 L702.75 153.5 L702.75 203.5 L610.25 203.5 Z" clip-path="url(#clipPath2)"/>
      <text x="630.417" xml:space="preserve" y="183.0352" font-family="sans-serif" clip-path="url(#clipPath2)" stroke="none">Projector</text>
    </g>
    <g fill="url(#linearGradient10)" text-rendering="geometricPrecision" shape-rendering="geometricPrecision" transform="matrix(1,0,0,1,-33,-137)" stroke="url(#linearGradient10)">
      <path d="M789.25 152.5 L881.75 152.5 L881.75 202.5 L789.25 202.5 Z" clip-path="url(#clipPath2)" stroke="none"/>
    </g>
    <g text-rendering="geometricPrecision" stroke-miterlimit="1.45" shape-rendering="geometricPrecision" transform="matrix(1,0,0,1,-33,-137)" stroke-linecap="butt">
      <path fill="none" d="M789.25 152.5 L881.75 152.5 L881.75 202.5 L789.25 202.5 Z" clip-path="url(#clipPath2)"/>
      <text x="816.2549" xml:space="preserve" y="182.0352" font-family="sans-serif" clip-path="url(#clipPath2)" stroke="none">Router</text>
    </g>
    <g text-rendering="geometricPrecision" stroke-miterlimit="1.45" shape-rendering="geometricPrecision" font-family="sans-serif" transform="matrix(1,0,0,1,-33,-137)" stroke-linecap="butt">
      <text x="505.8926" xml:space="preserve" y="324.7773" clip-path="url(#clipPath2)" stroke="none">3. Handshake with</text>
    </g>
    <g text-rendering="geometricPrecision" stroke-miterlimit="1.45" shape-rendering="geometricPrecision" font-family="sans-serif" transform="matrix(1,0,0,1,-33,-137)" stroke-linecap="butt">
      <text x="504.917" xml:space="preserve" y="338.9102" clip-path="url(#clipPath2)" stroke="none">Index Coordinator </text>
      <text x="539.8594" xml:space="preserve" y="353.043" clip-path="url(#clipPath2)" stroke="none">master</text>
      <text x="304.0254" xml:space="preserve" y="426.5938" clip-path="url(#clipPath2)" stroke="none">5. Send ACK to</text>
      <text x="320.083" xml:space="preserve" y="440.7266" clip-path="url(#clipPath2)" stroke="none">ns_server</text>
      <text x="300.2764" xml:space="preserve" y="374.5938" clip-path="url(#clipPath2)" stroke="none">4. Choose latest State</text>
      <text x="300.9268" xml:space="preserve" y="388.7266" clip-path="url(#clipPath2)" stroke="none">Context and replicate</text>
      <text x="124.068" xml:space="preserve" y="458.0438" clip-path="url(#clipPath2)" stroke="none">6. Start Projector/</text>
      <text x="109.818" xml:space="preserve" y="472.1766" clip-path="url(#clipPath2)" stroke="none">Router on all KV nodes</text>
    </g>
    <g fill="url(#linearGradient11)" text-rendering="geometricPrecision" shape-rendering="geometricPrecision" transform="matrix(1,0,0,1,-33,-137)" stroke="url(#linearGradient11)">
      <path d="M995.3333 232 L1004.3333 232 L1004.3333 1120.1666 L995.3333 1120.1666 Z" clip-path="url(#clipPath2)" stroke="none"/>
    </g>
    <g text-rendering="geometricPrecision" stroke-miterlimit="1.45" shape-rendering="geometricPrecision" transform="matrix(1,0,0,1,-33,-137)" stroke-linecap="butt">
      <path fill="none" d="M995.3333 232 L1004.3333 232 L1004.3333 1120.1666 L995.3333 1120.1666 Z" clip-path="url(#clipPath2)"/>
    </g>
    <g fill="url(#linearGradient12)" text-rendering="geometricPrecision" shape-rendering="geometricPrecision" transform="matrix(1,0,0,1,-33,-137)" stroke="url(#linearGradient12)">
      <path d="M952.8333 154.25 L1045.3334 154.25 L1045.3334 204.25 L952.8333 204.25 Z" clip-path="url(#clipPath2)" stroke="none"/>
    </g>
    <g text-rendering="geometricPrecision" stroke-miterlimit="1.45" shape-rendering="geometricPrecision" transform="matrix(1,0,0,1,-33,-137)" stroke-linecap="butt">
      <path fill="none" d="M952.8333 154.25 L1045.3334 154.25 L1045.3334 204.25 L952.8333 204.25 Z" clip-path="url(#clipPath2)"/>
      <text x="977.0345" xml:space="preserve" y="183.7852" font-family="sans-serif" clip-path="url(#clipPath2)" stroke="none">Indexer</text>
    </g>
    <g text-rendering="geometricPrecision" stroke-miterlimit="1.45" shape-rendering="geometricPrecision" font-family="sans-serif" transform="matrix(1,0,0,1,-33,-137)" stroke-linecap="butt">
      <text x="109.4395" xml:space="preserve" y="247.3438" clip-path="url(#clipPath2)" stroke="none">1. Start Index Co-</text>
      <text x="112.8877" xml:space="preserve" y="261.4766" clip-path="url(#clipPath2)" stroke="none">ordinator master</text>
      <text x="110.4395" xml:space="preserve" y="292.5938" clip-path="url(#clipPath2)" stroke="none">2. Start Index Co-</text>
      <text x="111.415" xml:space="preserve" y="306.7266" clip-path="url(#clipPath2)" stroke="none">ordinator replicas</text>
      <text x="122.55" xml:space="preserve" y="522.9274" clip-path="url(#clipPath2)" stroke="none">7. Send list of</text>
      <text x="108.0832" xml:space="preserve" y="537.0602" clip-path="url(#clipPath2)" stroke="none">Projectors/Routers</text>
      <text x="118.0383" xml:space="preserve" y="551.193" clip-path="url(#clipPath2)" stroke="none">to Coordinator </text>
      <text x="298.4281" xml:space="preserve" y="564.1437" clip-path="url(#clipPath2)" stroke="none">8. Update StateContext</text>
      <text x="333.5932" xml:space="preserve" y="578.2766" clip-path="url(#clipPath2)" stroke="none">and persist</text>
      <text x="298.8309" xml:space="preserve" y="612.4437" clip-path="url(#clipPath2)" stroke="none">9. Repicte StateContext</text>
      <text x="326.7391" xml:space="preserve" y="626.5765" clip-path="url(#clipPath2)" stroke="none">to all Replicas</text>
      <text x="299.9814" xml:space="preserve" y="693.0938" clip-path="url(#clipPath2)" stroke="none">10. Send ACK to</text>
      <text x="319.833" xml:space="preserve" y="707.2266" clip-path="url(#clipPath2)" stroke="none">ns_server</text>
      <text x="109.84" xml:space="preserve" y="764.4938" clip-path="url(#clipPath2)" stroke="none">11. Start Indexers on </text>
      <text x="122.7043" xml:space="preserve" y="778.6266" clip-path="url(#clipPath2)" stroke="none">all indexer nodes</text>
      <text x="1034.782" xml:space="preserve" y="836.3273" clip-path="url(#clipPath2)" stroke="none">12. Handshake with</text>
      <text x="1038.5935" xml:space="preserve" y="850.4601" clip-path="url(#clipPath2)" stroke="none">Coordinator to get</text>
      <text x="1037.2751" xml:space="preserve" y="864.593" clip-path="url(#clipPath2)" stroke="none">latest StateContext</text>
      <text x="312.6049" xml:space="preserve" y="929.1937" clip-path="url(#clipPath2)" stroke="none">13. Provide latest</text>
      <text x="294.019" xml:space="preserve" y="943.3265" clip-path="url(#clipPath2)" stroke="none">StateContext to Indexer</text>
      <text x="300.9599" xml:space="preserve" y="1001.9774" clip-path="url(#clipPath2)" stroke="none">14. Request Projector</text>
      <text x="298.039" xml:space="preserve" y="1016.1102" clip-path="url(#clipPath2)" stroke="none">for Topic Creation and</text>
      <text x="321.0546" xml:space="preserve" y="1030.2429" clip-path="url(#clipPath2)" stroke="none">UPR Streaming</text>
      <text x="1030.4432" xml:space="preserve" y="1057.4274" clip-path="url(#clipPath2)" stroke="none">15. Request Projector</text>
      <text x="1011.9979" xml:space="preserve" y="1071.5602" clip-path="url(#clipPath2)" stroke="none">for CatchUp Topic Creation </text>
      <text x="1062.6464" xml:space="preserve" y="1085.693" clip-path="url(#clipPath2)" stroke="none">if required</text>
      <path fill="none" d="M99.9706 271.0169 L268.7172 270.8741" clip-path="url(#clipPath2)"/>
      <path d="M276.7172 270.8673 L264.7129 265.8775 L267.7172 270.8749 L264.7214 275.8775 Z" clip-path="url(#clipPath2)" stroke="none"/>
      <path fill="none" d="M276.7173 430.4474 L108.5025 430.5228" clip-path="url(#clipPath2)"/>
      <path d="M100.5025 430.5264 L112.5047 435.521 L109.5025 430.5223 L112.5003 425.521 Z" clip-path="url(#clipPath2)" stroke="none"/>
      <path fill="none" d="M276.7109 724.1451 L108.0077 724.8605" clip-path="url(#clipPath2)"/>
      <path d="M100.0078 724.8944 L112.0289 729.8434 L109.0077 724.8563 L111.9865 719.8436 Z" clip-path="url(#clipPath2)" stroke="none"/>
      <path fill="none" d="M100.0168 319.5834 L456.4569 318.2308" clip-path="url(#clipPath2)"/>
      <path d="M464.4569 318.2004 L452.438 313.246 L455.4569 318.2346 L452.476 323.2459 Z" clip-path="url(#clipPath2)" stroke="none"/>
      <path fill="none" d="M285.7883 403.4667 L456.4634 403.304" clip-path="url(#clipPath2)"/>
      <path d="M464.4634 403.2963 L452.4587 398.3078 L455.4634 403.3049 L452.4682 408.3078 Z" clip-path="url(#clipPath2)" stroke="none"/>
      <path fill="none" d="M285.7587 653.8439 L456.4671 653.4767" clip-path="url(#clipPath2)"/>
      <path d="M464.4671 653.4595 L452.4563 648.4853 L455.4671 653.4788 L452.4778 658.4853 Z" clip-path="url(#clipPath2)" stroke="none"/>
      <path fill="none" d="M463.5025 342.6013 L293.7633 343.5952" clip-path="url(#clipPath2)"/>
      <path d="M285.7634 343.642 L297.7925 348.5717 L294.7633 343.5893 L297.7339 338.5718 Z" clip-path="url(#clipPath2)" stroke="none"/>
      <path fill="none" d="M100.0428 485.4965 L646.9896 483.7651" clip-path="url(#clipPath2)"/>
      <path d="M654.9896 483.7397 L642.9738 478.7778 L645.9896 483.7682 L643.0054 488.7777 Z" clip-path="url(#clipPath2)" stroke="none"/>
      <path fill="none" d="M285.7871 1047.5323 L646.9609 1046.5925" clip-path="url(#clipPath2)"/>
      <path d="M654.9609 1046.5717 L642.9479 1041.603 L645.961 1046.5951 L642.974 1051.6029 Z" clip-path="url(#clipPath2)" stroke="none"/>
      <path fill="none" d="M100.0109 498.9557 L823.7254 496.8465" clip-path="url(#clipPath2)"/>
      <path d="M831.7253 496.8232 L819.7108 491.8582 L822.7254 496.8494 L819.74 501.8581 Z" clip-path="url(#clipPath2)" stroke="none"/>
      <path fill="none" d="M101.25 810.8546 L987.3399 808.8654" clip-path="url(#clipPath2)"/>
      <path d="M995.3399 808.8474 L983.3287 803.8743 L986.3399 808.8676 L983.3511 813.8743 Z" clip-path="url(#clipPath2)" stroke="none"/>
      <path fill="none" d="M287.75 972.446 L987.3083 970.5793" clip-path="url(#clipPath2)"/>
      <path d="M995.3083 970.558 L983.295 965.59 L986.3084 970.582 L983.3217 975.59 Z" clip-path="url(#clipPath2)" stroke="none"/>
      <path fill="none" d="M995.3239 888.9185 L640.5542 888.7207 L293.7855 889.5404" clip-path="url(#clipPath2)"/>
      <path d="M285.7855 889.5593 L297.7973 894.5309 L294.7855 889.538 L297.7736 884.5309 Z" clip-path="url(#clipPath2)" stroke="none"/>
      <path fill="none" d="M995.0469 1102.1035 L829.5448 1102.954 L672.041 1102.5786" clip-path="url(#clipPath2)"/>
      <path d="M664.041 1102.5596 L676.0291 1107.5881 L673.041 1102.5809 L676.0529 1097.5881 Z" clip-path="url(#clipPath2)" stroke="none"/>
    </g>
  </g>
</svg>
