<?xml version="1.0" encoding="UTF-8"?>
<svg xmlns="http://www.w3.org/2000/svg" xmlns:xlink="http://www.w3.org/1999/xlink" fill-opacity="1" color-rendering="auto" color-interpolation="auto" stroke="black" text-rendering="auto" stroke-linecap="square" width="929" stroke-miterlimit="10" stroke-opacity="1" shape-rendering="auto" fill="black" stroke-dasharray="none" font-weight="normal" stroke-width="1" height="802" font-family="'Dialog'" font-style="normal" stroke-linejoin="miter" font-size="12" stroke-dashoffset="0" image-rendering="auto">
  <!--Generated by ySVG 2.5-->
  <defs id="genericDefs"/>
  <g>
    <defs id="defs1">
      <linearGradient x1="193" gradientUnits="userSpaceOnUse" x2="202" y1="175.75" y2="865.4167" id="linearGradient1" spreadMethod="reflect">
        <stop stop-opacity="1" stop-color="rgb(232,238,247)" offset="0%"/>
        <stop stop-opacity="1" stop-color="rgb(183,201,227)" offset="100%"/>
      </linearGradient>
      <linearGradient x1="158" gradientUnits="userSpaceOnUse" x2="238" y1="105.75" y2="145.75" id="linearGradient2" spreadMethod="reflect">
        <stop stop-opacity="1" stop-color="rgb(232,238,247)" offset="0%"/>
        <stop stop-opacity="1" stop-color="rgb(183,201,227)" offset="100%"/>
      </linearGradient>
      <linearGradient x1="365" gradientUnits="userSpaceOnUse" x2="374" y1="175.75" y2="874.1667" id="linearGradient3" spreadMethod="reflect">
        <stop stop-opacity="1" stop-color="rgb(232,238,247)" offset="0%"/>
        <stop stop-opacity="1" stop-color="rgb(183,201,227)" offset="100%"/>
      </linearGradient>
      <linearGradient x1="330" gradientUnits="userSpaceOnUse" x2="410" y1="105.75" y2="145.75" id="linearGradient4" spreadMethod="reflect">
        <stop stop-opacity="1" stop-color="rgb(232,238,247)" offset="0%"/>
        <stop stop-opacity="1" stop-color="rgb(183,201,227)" offset="100%"/>
      </linearGradient>
      <linearGradient x1="528" gradientUnits="userSpaceOnUse" x2="537" y1="181" y2="869.1667" id="linearGradient5" spreadMethod="reflect">
        <stop stop-opacity="1" stop-color="rgb(232,238,247)" offset="0%"/>
        <stop stop-opacity="1" stop-color="rgb(183,201,227)" offset="100%"/>
      </linearGradient>
      <linearGradient x1="493" gradientUnits="userSpaceOnUse" x2="573" y1="104.75" y2="144.75" id="linearGradient6" spreadMethod="reflect">
        <stop stop-opacity="1" stop-color="rgb(232,238,247)" offset="0%"/>
        <stop stop-opacity="1" stop-color="rgb(183,201,227)" offset="100%"/>
      </linearGradient>
      <linearGradient x1="900" gradientUnits="userSpaceOnUse" x2="909" y1="173.5" y2="870.5833" id="linearGradient7" spreadMethod="reflect">
        <stop stop-opacity="1" stop-color="rgb(232,238,247)" offset="0%"/>
        <stop stop-opacity="1" stop-color="rgb(183,201,227)" offset="100%"/>
      </linearGradient>
      <linearGradient x1="865" gradientUnits="userSpaceOnUse" x2="945" y1="103.5" y2="143.5" id="linearGradient8" spreadMethod="reflect">
        <stop stop-opacity="1" stop-color="rgb(232,238,247)" offset="0%"/>
        <stop stop-opacity="1" stop-color="rgb(183,201,227)" offset="100%"/>
      </linearGradient>
      <linearGradient x1="715.5" gradientUnits="userSpaceOnUse" x2="724.5" y1="179.75" y2="867.9167" id="linearGradient9" spreadMethod="reflect">
        <stop stop-opacity="1" stop-color="rgb(232,238,247)" offset="0%"/>
        <stop stop-opacity="1" stop-color="rgb(183,201,227)" offset="100%"/>
      </linearGradient>
      <linearGradient x1="680.5" gradientUnits="userSpaceOnUse" x2="760.5" y1="103.5" y2="143.5" id="linearGradient10" spreadMethod="reflect">
        <stop stop-opacity="1" stop-color="rgb(232,238,247)" offset="0%"/>
        <stop stop-opacity="1" stop-color="rgb(183,201,227)" offset="100%"/>
      </linearGradient>
      <clipPath clipPathUnits="userSpaceOnUse" id="clipPath1">
        <path d="M0 0 L929 0 L929 802 L0 802 L0 0 Z"/>
      </clipPath>
      <clipPath clipPathUnits="userSpaceOnUse" id="clipPath2">
        <path d="M143 88 L1072 88 L1072 890 L143 890 L143 88 Z"/>
      </clipPath>
    </defs>
    <g fill="white" text-rendering="geometricPrecision" shape-rendering="geometricPrecision" transform="translate(-143,-88)" stroke="white">
      <rect x="143" width="929" height="802" y="88" clip-path="url(#clipPath2)" stroke="none"/>
    </g>
    <g fill="url(#linearGradient1)" text-rendering="geometricPrecision" shape-rendering="geometricPrecision" transform="matrix(1,0,0,1,-143,-88)" stroke="url(#linearGradient1)">
      <path d="M193 175.75 L202 175.75 L202 865.4167 L193 865.4167 Z" clip-path="url(#clipPath2)" stroke="none"/>
    </g>
    <g text-rendering="geometricPrecision" stroke-miterlimit="1.45" shape-rendering="geometricPrecision" transform="matrix(1,0,0,1,-143,-88)" stroke-linecap="butt">
      <path fill="none" d="M193 175.75 L202 175.75 L202 865.4167 L193 865.4167 Z" clip-path="url(#clipPath2)"/>
    </g>
    <g fill="url(#linearGradient2)" text-rendering="geometricPrecision" shape-rendering="geometricPrecision" transform="matrix(1,0,0,1,-143,-88)" stroke="url(#linearGradient2)">
      <path d="M158 105.75 L238 105.75 L238 145.75 L158 145.75 Z" clip-path="url(#clipPath2)" stroke="none"/>
    </g>
    <g text-rendering="geometricPrecision" stroke-miterlimit="1.45" shape-rendering="geometricPrecision" transform="matrix(1,0,0,1,-143,-88)" stroke-linecap="butt">
      <path fill="none" d="M158 105.75 L238 105.75 L238 145.75 L158 145.75 Z" clip-path="url(#clipPath2)"/>
      <text x="171.917" xml:space="preserve" y="130.2852" font-family="sans-serif" clip-path="url(#clipPath2)" stroke="none">Projector</text>
    </g>
    <g fill="url(#linearGradient3)" text-rendering="geometricPrecision" shape-rendering="geometricPrecision" transform="matrix(1,0,0,1,-143,-88)" stroke="url(#linearGradient3)">
      <path d="M365 175.75 L374 175.75 L374 874.1667 L365 874.1667 Z" clip-path="url(#clipPath2)" stroke="none"/>
    </g>
    <g text-rendering="geometricPrecision" stroke-miterlimit="1.45" shape-rendering="geometricPrecision" transform="matrix(1,0,0,1,-143,-88)" stroke-linecap="butt">
      <path fill="none" d="M365 175.75 L374 175.75 L374 874.1667 L365 874.1667 Z" clip-path="url(#clipPath2)"/>
    </g>
    <g fill="url(#linearGradient4)" text-rendering="geometricPrecision" shape-rendering="geometricPrecision" transform="matrix(1,0,0,1,-143,-88)" stroke="url(#linearGradient4)">
      <path d="M330 105.75 L410 105.75 L410 145.75 L330 145.75 Z" clip-path="url(#clipPath2)" stroke="none"/>
    </g>
    <g text-rendering="geometricPrecision" stroke-miterlimit="1.45" shape-rendering="geometricPrecision" transform="matrix(1,0,0,1,-143,-88)" stroke-linecap="butt">
      <path fill="none" d="M330 105.75 L410 105.75 L410 145.75 L330 145.75 Z" clip-path="url(#clipPath2)"/>
      <text x="350.7549" xml:space="preserve" y="130.2852" font-family="sans-serif" clip-path="url(#clipPath2)" stroke="none">Router</text>
    </g>
    <g fill="url(#linearGradient5)" text-rendering="geometricPrecision" shape-rendering="geometricPrecision" transform="matrix(1,0,0,1,-143,-88)" stroke="url(#linearGradient5)">
      <path d="M528 181 L537 181 L537 869.1667 L528 869.1667 Z" clip-path="url(#clipPath2)" stroke="none"/>
    </g>
    <g text-rendering="geometricPrecision" stroke-miterlimit="1.45" shape-rendering="geometricPrecision" transform="matrix(1,0,0,1,-143,-88)" stroke-linecap="butt">
      <path fill="none" d="M528 181 L537 181 L537 869.1667 L528 869.1667 Z" clip-path="url(#clipPath2)"/>
    </g>
    <g fill="url(#linearGradient6)" text-rendering="geometricPrecision" shape-rendering="geometricPrecision" transform="matrix(1,0,0,1,-143,-88)" stroke="url(#linearGradient6)">
      <path d="M493 104.75 L573 104.75 L573 144.75 L493 144.75 Z" clip-path="url(#clipPath2)" stroke="none"/>
    </g>
    <g text-rendering="geometricPrecision" stroke-miterlimit="1.45" shape-rendering="geometricPrecision" transform="matrix(1,0,0,1,-143,-88)" stroke-linecap="butt">
      <path fill="none" d="M493 104.75 L573 104.75 L573 144.75 L493 144.75 Z" clip-path="url(#clipPath2)"/>
      <text x="507.1572" xml:space="preserve" y="129.2852" font-family="sans-serif" clip-path="url(#clipPath2)" stroke="none">Indexer1</text>
    </g>
    <g fill="url(#linearGradient7)" text-rendering="geometricPrecision" shape-rendering="geometricPrecision" transform="matrix(1,0,0,1,-143,-88)" stroke="url(#linearGradient7)">
      <path d="M900 173.5 L909 173.5 L909 870.5833 L900 870.5833 Z" clip-path="url(#clipPath2)" stroke="none"/>
    </g>
    <g text-rendering="geometricPrecision" stroke-miterlimit="1.45" shape-rendering="geometricPrecision" transform="matrix(1,0,0,1,-143,-88)" stroke-linecap="butt">
      <path fill="none" d="M900 173.5 L909 173.5 L909 870.5833 L900 870.5833 Z" clip-path="url(#clipPath2)"/>
    </g>
    <g fill="url(#linearGradient8)" text-rendering="geometricPrecision" shape-rendering="geometricPrecision" transform="matrix(1,0,0,1,-143,-88)" stroke="url(#linearGradient8)">
      <path d="M865 103.5 L945 103.5 L945 143.5 L865 143.5 Z" clip-path="url(#clipPath2)" stroke="none"/>
    </g>
    <g text-rendering="geometricPrecision" stroke-miterlimit="1.45" shape-rendering="geometricPrecision" transform="matrix(1,0,0,1,-143,-88)" stroke-linecap="butt">
      <path fill="none" d="M865 103.5 L945 103.5 L945 143.5 L865 143.5 Z" clip-path="url(#clipPath2)"/>
      <text x="888.749" xml:space="preserve" y="120.9688" font-family="sans-serif" clip-path="url(#clipPath2)" stroke="none">Index</text>
      <text x="879.9424" xml:space="preserve" y="135.1016" font-family="sans-serif" clip-path="url(#clipPath2)" stroke="none">Manager</text>
    </g>
    <g text-rendering="geometricPrecision" stroke-miterlimit="1.45" shape-rendering="geometricPrecision" font-family="sans-serif" transform="matrix(1,0,0,1,-143,-88)" stroke-linecap="butt">
      <text x="213.7822" xml:space="preserve" y="200.2852" clip-path="url(#clipPath2)" stroke="none">1. Receive DELETE</text>
    </g>
    <g text-rendering="geometricPrecision" stroke-miterlimit="1.45" shape-rendering="geometricPrecision" font-family="sans-serif" transform="matrix(1,0,0,1,-143,-88)" stroke-linecap="butt">
      <text x="215.8633" xml:space="preserve" y="235.7852" clip-path="url(#clipPath2)" stroke="none">2. Send to Router</text>
      <text x="379.3" xml:space="preserve" y="296.1133" clip-path="url(#clipPath2)" stroke="none">5. Decide Indexers</text>
      <text x="379.3" xml:space="preserve" y="310.2461" clip-path="url(#clipPath2)" stroke="none">based on IndexId</text>
      <text x="550.3486" xml:space="preserve" y="461.3438" clip-path="url(#clipPath2)" stroke="none">7. Add DELETE to </text>
      <text x="555.9707" xml:space="preserve" y="475.4766" clip-path="url(#clipPath2)" stroke="none">Mutation Queue</text>
      <text x="928.3096" xml:space="preserve" y="552.8516" clip-path="url(#clipPath2)" stroke="none">9. Stability Snapshot  </text>
      <text x="928.3096" xml:space="preserve" y="566.9844" clip-path="url(#clipPath2)" stroke="none">Generation Decision </text>
      <text x="928.3096" xml:space="preserve" y="581.1172" clip-path="url(#clipPath2)" stroke="none">Reached</text>
      <text x="549.2695" xml:space="preserve" y="506.9688" clip-path="url(#clipPath2)" stroke="none">8. Update High </text>
      <text x="549.2695" xml:space="preserve" y="521.1016" clip-path="url(#clipPath2)" stroke="none">Watermark Timestamp</text>
      <text x="548.9785" xml:space="preserve" y="686.9023" clip-path="url(#clipPath2)" stroke="none">11. Persist MutationQ.</text>
      <text x="548.9785" xml:space="preserve" y="701.0352" clip-path="url(#clipPath2)" stroke="none">(Apply If Key Exists)</text>
      <text x="548.9785" xml:space="preserve" y="715.168" clip-path="url(#clipPath2)" stroke="none">Update Stability Timestamp</text>
      <text x="923.7852" xml:space="preserve" y="613.2711" clip-path="url(#clipPath2)" stroke="none">10. Send message </text>
      <text x="923.7852" xml:space="preserve" y="627.4039" clip-path="url(#clipPath2)" stroke="none">to all Indexers</text>
      <text x="551.0498" xml:space="preserve" y="742.2852" clip-path="url(#clipPath2)" stroke="none">12. Send Ack to IM</text>
      <text x="917.5605" xml:space="preserve" y="806.9688" clip-path="url(#clipPath2)" stroke="none">13. Update Stability </text>
      <text x="917.5605" xml:space="preserve" y="821.1016" clip-path="url(#clipPath2)" stroke="none">Timestamp</text>
    </g>
    <g fill="url(#linearGradient9)" text-rendering="geometricPrecision" shape-rendering="geometricPrecision" transform="matrix(1,0,0,1,-143,-88)" stroke="url(#linearGradient9)">
      <path d="M715.5 179.75 L724.5 179.75 L724.5 867.9167 L715.5 867.9167 Z" clip-path="url(#clipPath2)" stroke="none"/>
    </g>
    <g text-rendering="geometricPrecision" stroke-miterlimit="1.45" shape-rendering="geometricPrecision" transform="matrix(1,0,0,1,-143,-88)" stroke-linecap="butt">
      <path fill="none" d="M715.5 179.75 L724.5 179.75 L724.5 867.9167 L715.5 867.9167 Z" clip-path="url(#clipPath2)"/>
    </g>
    <g fill="url(#linearGradient10)" text-rendering="geometricPrecision" shape-rendering="geometricPrecision" transform="matrix(1,0,0,1,-143,-88)" stroke="url(#linearGradient10)">
      <path d="M680.5 103.5 L760.5 103.5 L760.5 143.5 L680.5 143.5 Z" clip-path="url(#clipPath2)" stroke="none"/>
    </g>
    <g text-rendering="geometricPrecision" stroke-miterlimit="1.45" shape-rendering="geometricPrecision" transform="matrix(1,0,0,1,-143,-88)" stroke-linecap="butt">
      <path fill="none" d="M680.5 103.5 L760.5 103.5 L760.5 143.5 L680.5 143.5 Z" clip-path="url(#clipPath2)"/>
      <text x="694.6572" xml:space="preserve" y="128.0352" font-family="sans-serif" clip-path="url(#clipPath2)" stroke="none">Indexer2</text>
    </g>
    <g text-rendering="geometricPrecision" stroke-miterlimit="1.45" shape-rendering="geometricPrecision" font-family="sans-serif" transform="matrix(1,0,0,1,-143,-88)" stroke-linecap="butt">
      <text x="733.4785" xml:space="preserve" y="688.1523" clip-path="url(#clipPath2)" stroke="none">11. Persist MutationQ.</text>
      <text x="733.4785" xml:space="preserve" y="702.2852" clip-path="url(#clipPath2)" stroke="none">(Apply If Key Exists)</text>
      <text x="733.4785" xml:space="preserve" y="716.418" clip-path="url(#clipPath2)" stroke="none">Update Stability Timestamp</text>
      <text x="730.5498" xml:space="preserve" y="739.7852" clip-path="url(#clipPath2)" stroke="none">12. Send Ack to IM</text>
      <text x="379.0859" xml:space="preserve" y="343.6523" clip-path="url(#clipPath2)" stroke="none">6. Send DELETE message</text>
      <text x="379.0859" xml:space="preserve" y="357.7852" clip-path="url(#clipPath2)" stroke="none">to all indexers</text>
      <text x="379.0859" xml:space="preserve" y="371.918" clip-path="url(#clipPath2)" stroke="none">for this index</text>
      <text x="742.3486" xml:space="preserve" y="463.8438" clip-path="url(#clipPath2)" stroke="none">7. Add DELETE to </text>
      <text x="747.9707" xml:space="preserve" y="477.9766" clip-path="url(#clipPath2)" stroke="none">Mutation Queue</text>
      <text x="741.2695" xml:space="preserve" y="509.4688" clip-path="url(#clipPath2)" stroke="none">8. Update High </text>
      <text x="741.2695" xml:space="preserve" y="523.6016" clip-path="url(#clipPath2)" stroke="none">Watermark Timestamp</text>
      <path fill="none" d="M202.0331 257.7794 L355.5002 258.8264" clip-path="url(#clipPath2)"/>
      <path d="M363.5 258.881 L351.5344 253.7993 L354.5002 258.8196 L351.4662 263.799 Z" clip-path="url(#clipPath2)" stroke="none"/>
      <path fill="none" d="M374.0191 399.8479 L450.9866 398.9868 L519.9954 399.3841" clip-path="url(#clipPath2)"/>
      <path d="M527.9953 399.4302 L516.0243 394.3612 L518.9954 399.3784 L515.9667 404.361 Z" clip-path="url(#clipPath2)" stroke="none"/>
      <path fill="none" d="M538.5 776.9443 L891.9965 774.2703" clip-path="url(#clipPath2)"/>
      <path d="M899.9963 774.2098 L887.9588 769.3007 L890.9965 774.2778 L888.0344 779.3004 Z" clip-path="url(#clipPath2)" stroke="none"/>
      <path fill="none" d="M898.5 658.7482 L717.7422 659.4138 L545.0002 661.8344" clip-path="url(#clipPath2)"/>
      <path d="M537.001 661.9465 L549.0699 666.7778 L546.0002 661.8204 L548.9298 656.7789 Z" clip-path="url(#clipPath2)" stroke="none"/>
      <path fill="none" d="M899.9551 637.5446 L812.2127 637.0395 L732.5143 637.6691" clip-path="url(#clipPath2)"/>
      <path d="M724.5146 637.7323 L736.5537 642.6374 L733.5143 637.6613 L736.4747 632.6377 Z" clip-path="url(#clipPath2)" stroke="none"/>
      <path fill="none" d="M373.9959 424.1262 L544.3607 423.4308 L706.7509 421.0404" clip-path="url(#clipPath2)"/>
      <path d="M714.75 420.9227 L702.6777 416.0998 L705.751 421.0551 L702.8249 426.0987 Z" clip-path="url(#clipPath2)" stroke="none"/>
      <path fill="none" d="M724.5364 789.5031 L891.9636 787.2994" clip-path="url(#clipPath2)"/>
      <path d="M899.9629 787.1941 L887.8981 782.3525 L890.9637 787.3126 L888.0297 792.3516 Z" clip-path="url(#clipPath2)" stroke="none"/>
    </g>
  </g>
</svg>
