<?xml version="1.0" encoding="UTF-8"?>
<svg xmlns="http://www.w3.org/2000/svg" xmlns:xlink="http://www.w3.org/1999/xlink" fill-opacity="1" color-rendering="auto" color-interpolation="auto" stroke="black" text-rendering="auto" stroke-linecap="square" width="967" stroke-miterlimit="10" stroke-opacity="1" shape-rendering="auto" fill="black" stroke-dasharray="none" font-weight="normal" stroke-width="1" height="1005" font-family="'Dialog'" font-style="normal" stroke-linejoin="miter" font-size="12" stroke-dashoffset="0" image-rendering="auto">
  <!--Generated by ySVG 2.5-->
  <defs id="genericDefs"/>
  <g>
    <defs id="defs1">
      <linearGradient x1="65.5" gradientUnits="userSpaceOnUse" x2="74.5" y1="202.75" y2="1101.6666" id="linearGradient1" spreadMethod="reflect">
        <stop stop-opacity="1" stop-color="rgb(232,238,247)" offset="0%"/>
        <stop stop-opacity="1" stop-color="rgb(183,201,227)" offset="100%"/>
      </linearGradient>
      <linearGradient x1="251.25" gradientUnits="userSpaceOnUse" x2="260.25" y1="205.75" y2="1096.6666" id="linearGradient2" spreadMethod="reflect">
        <stop stop-opacity="1" stop-color="rgb(232,238,247)" offset="0%"/>
        <stop stop-opacity="1" stop-color="rgb(183,201,227)" offset="100%"/>
      </linearGradient>
      <linearGradient x1="22.5" gradientUnits="userSpaceOnUse" x2="115" y1="129.5" y2="179.5" id="linearGradient3" spreadMethod="reflect">
        <stop stop-opacity="1" stop-color="rgb(232,238,247)" offset="0%"/>
        <stop stop-opacity="1" stop-color="rgb(183,201,227)" offset="100%"/>
      </linearGradient>
      <linearGradient x1="439" gradientUnits="userSpaceOnUse" x2="448" y1="209.5" y2="1093.4166" id="linearGradient4" spreadMethod="reflect">
        <stop stop-opacity="1" stop-color="rgb(232,238,247)" offset="0%"/>
        <stop stop-opacity="1" stop-color="rgb(183,201,227)" offset="100%"/>
      </linearGradient>
      <linearGradient x1="629.5" gradientUnits="userSpaceOnUse" x2="638.5" y1="207.5" y2="1093.1666" id="linearGradient5" spreadMethod="reflect">
        <stop stop-opacity="1" stop-color="rgb(232,238,247)" offset="0%"/>
        <stop stop-opacity="1" stop-color="rgb(183,201,227)" offset="100%"/>
      </linearGradient>
      <linearGradient x1="394.25" gradientUnits="userSpaceOnUse" x2="486.75" y1="129.5" y2="179.5" id="linearGradient6" spreadMethod="reflect">
        <stop stop-opacity="1" stop-color="rgb(232,238,247)" offset="0%"/>
        <stop stop-opacity="1" stop-color="rgb(183,201,227)" offset="100%"/>
      </linearGradient>
      <linearGradient x1="211" gradientUnits="userSpaceOnUse" x2="303.5" y1="129.5" y2="179.5" id="linearGradient7" spreadMethod="reflect">
        <stop stop-opacity="1" stop-color="rgb(232,238,247)" offset="0%"/>
        <stop stop-opacity="1" stop-color="rgb(183,201,227)" offset="100%"/>
      </linearGradient>
      <linearGradient x1="806.25" gradientUnits="userSpaceOnUse" x2="815.25" y1="205" y2="1093.1666" id="linearGradient8" spreadMethod="reflect">
        <stop stop-opacity="1" stop-color="rgb(232,238,247)" offset="0%"/>
        <stop stop-opacity="1" stop-color="rgb(183,201,227)" offset="100%"/>
      </linearGradient>
      <linearGradient x1="584.75" gradientUnits="userSpaceOnUse" x2="677.25" y1="128.25" y2="178.25" id="linearGradient9" spreadMethod="reflect">
        <stop stop-opacity="1" stop-color="rgb(232,238,247)" offset="0%"/>
        <stop stop-opacity="1" stop-color="rgb(183,201,227)" offset="100%"/>
      </linearGradient>
      <linearGradient x1="763.75" gradientUnits="userSpaceOnUse" x2="856.25" y1="127.25" y2="177.25" id="linearGradient10" spreadMethod="reflect">
        <stop stop-opacity="1" stop-color="rgb(232,238,247)" offset="0%"/>
        <stop stop-opacity="1" stop-color="rgb(183,201,227)" offset="100%"/>
      </linearGradient>
      <clipPath clipPathUnits="userSpaceOnUse" id="clipPath1">
        <path d="M0 0 L967 0 L967 1005 L0 1005 L0 0 Z"/>
      </clipPath>
      <clipPath clipPathUnits="userSpaceOnUse" id="clipPath2">
        <path d="M7 112 L974 112 L974 1117 L7 1117 L7 112 Z"/>
      </clipPath>
    </defs>
    <g fill="white" text-rendering="geometricPrecision" shape-rendering="geometricPrecision" transform="translate(-7,-112)" stroke="white">
      <rect x="7" width="967" height="1005" y="112" clip-path="url(#clipPath2)" stroke="none"/>
    </g>
    <g fill="url(#linearGradient1)" text-rendering="geometricPrecision" shape-rendering="geometricPrecision" transform="matrix(1,0,0,1,-7,-112)" stroke="url(#linearGradient1)">
      <path d="M65.5 202.75 L74.5 202.75 L74.5 1101.6666 L65.5 1101.6666 Z" clip-path="url(#clipPath2)" stroke="none"/>
    </g>
    <g text-rendering="geometricPrecision" stroke-miterlimit="1.45" shape-rendering="geometricPrecision" transform="matrix(1,0,0,1,-7,-112)" stroke-linecap="butt">
      <path fill="none" d="M65.5 202.75 L74.5 202.75 L74.5 1101.6666 L65.5 1101.6666 Z" clip-path="url(#clipPath2)"/>
    </g>
    <g fill="url(#linearGradient2)" text-rendering="geometricPrecision" shape-rendering="geometricPrecision" transform="matrix(1,0,0,1,-7,-112)" stroke="url(#linearGradient2)">
      <path d="M251.25 205.75 L260.25 205.75 L260.25 1096.6666 L251.25 1096.6666 Z" clip-path="url(#clipPath2)" stroke="none"/>
    </g>
    <g text-rendering="geometricPrecision" stroke-miterlimit="1.45" shape-rendering="geometricPrecision" transform="matrix(1,0,0,1,-7,-112)" stroke-linecap="butt">
      <path fill="none" d="M251.25 205.75 L260.25 205.75 L260.25 1096.6666 L251.25 1096.6666 Z" clip-path="url(#clipPath2)"/>
    </g>
    <g fill="url(#linearGradient3)" text-rendering="geometricPrecision" shape-rendering="geometricPrecision" transform="matrix(1,0,0,1,-7,-112)" stroke="url(#linearGradient3)">
      <path d="M22.5 129.5 L115 129.5 L115 179.5 L22.5 179.5 Z" clip-path="url(#clipPath2)" stroke="none"/>
    </g>
    <g text-rendering="geometricPrecision" stroke-miterlimit="1.45" shape-rendering="geometricPrecision" transform="matrix(1,0,0,1,-7,-112)" stroke-linecap="butt">
      <path fill="none" d="M22.5 129.5 L115 129.5 L115 179.5 L22.5 179.5 Z" clip-path="url(#clipPath2)"/>
      <text x="52.499" xml:space="preserve" y="144.9023" font-family="sans-serif" clip-path="url(#clipPath2)" stroke="none">Index</text>
      <text x="33.8398" xml:space="preserve" y="159.0352" font-family="sans-serif" clip-path="url(#clipPath2)" stroke="none">Coordinator</text>
      <text x="44.832" xml:space="preserve" y="173.168" font-family="sans-serif" clip-path="url(#clipPath2)" stroke="none">(master)</text>
    </g>
    <g fill="url(#linearGradient4)" text-rendering="geometricPrecision" shape-rendering="geometricPrecision" transform="matrix(1,0,0,1,-7,-112)" stroke="url(#linearGradient4)">
      <path d="M439 209.5 L448 209.5 L448 1093.4166 L439 1093.4166 Z" clip-path="url(#clipPath2)" stroke="none"/>
    </g>
    <g text-rendering="geometricPrecision" stroke-miterlimit="1.45" shape-rendering="geometricPrecision" transform="matrix(1,0,0,1,-7,-112)" stroke-linecap="butt">
      <path fill="none" d="M439 209.5 L448 209.5 L448 1093.4166 L439 1093.4166 Z" clip-path="url(#clipPath2)"/>
    </g>
    <g fill="url(#linearGradient5)" text-rendering="geometricPrecision" shape-rendering="geometricPrecision" transform="matrix(1,0,0,1,-7,-112)" stroke="url(#linearGradient5)">
      <path d="M629.5 207.5 L638.5 207.5 L638.5 1093.1666 L629.5 1093.1666 Z" clip-path="url(#clipPath2)" stroke="none"/>
    </g>
    <g text-rendering="geometricPrecision" stroke-miterlimit="1.45" shape-rendering="geometricPrecision" transform="matrix(1,0,0,1,-7,-112)" stroke-linecap="butt">
      <path fill="none" d="M629.5 207.5 L638.5 207.5 L638.5 1093.1666 L629.5 1093.1666 Z" clip-path="url(#clipPath2)"/>
    </g>
    <g fill="url(#linearGradient6)" text-rendering="geometricPrecision" shape-rendering="geometricPrecision" transform="matrix(1,0,0,1,-7,-112)" stroke="url(#linearGradient6)">
      <path d="M394.25 129.5 L486.75 129.5 L486.75 179.5 L394.25 179.5 Z" clip-path="url(#clipPath2)" stroke="none"/>
    </g>
    <g text-rendering="geometricPrecision" stroke-miterlimit="1.45" shape-rendering="geometricPrecision" transform="matrix(1,0,0,1,-7,-112)" stroke-linecap="butt">
      <path fill="none" d="M394.25 129.5 L486.75 129.5 L486.75 179.5 L394.25 179.5 Z" clip-path="url(#clipPath2)"/>
      <text x="424.249" xml:space="preserve" y="144.9023" font-family="sans-serif" clip-path="url(#clipPath2)" stroke="none">Index</text>
      <text x="405.5898" xml:space="preserve" y="159.0352" font-family="sans-serif" clip-path="url(#clipPath2)" stroke="none">Coordinator</text>
      <text x="413.374" xml:space="preserve" y="173.168" font-family="sans-serif" clip-path="url(#clipPath2)" stroke="none">(replica2)</text>
    </g>
    <g fill="url(#linearGradient7)" text-rendering="geometricPrecision" shape-rendering="geometricPrecision" transform="matrix(1,0,0,1,-7,-112)" stroke="url(#linearGradient7)">
      <path d="M211 129.5 L303.5 129.5 L303.5 179.5 L211 179.5 Z" clip-path="url(#clipPath2)" stroke="none"/>
    </g>
    <g text-rendering="geometricPrecision" stroke-miterlimit="1.45" shape-rendering="geometricPrecision" transform="matrix(1,0,0,1,-7,-112)" stroke-linecap="butt">
      <path fill="none" d="M211 129.5 L303.5 129.5 L303.5 179.5 L211 179.5 Z" clip-path="url(#clipPath2)"/>
      <text x="240.999" xml:space="preserve" y="144.9023" font-family="sans-serif" clip-path="url(#clipPath2)" stroke="none">Index</text>
      <text x="222.3398" xml:space="preserve" y="159.0352" font-family="sans-serif" clip-path="url(#clipPath2)" stroke="none">Coordinator</text>
      <text x="230.124" xml:space="preserve" y="173.168" font-family="sans-serif" clip-path="url(#clipPath2)" stroke="none">(replica1)</text>
    </g>
    <g fill="url(#linearGradient8)" text-rendering="geometricPrecision" shape-rendering="geometricPrecision" transform="matrix(1,0,0,1,-7,-112)" stroke="url(#linearGradient8)">
      <path d="M806.25 205 L815.25 205 L815.25 1093.1666 L806.25 1093.1666 Z" clip-path="url(#clipPath2)" stroke="none"/>
    </g>
    <g text-rendering="geometricPrecision" stroke-miterlimit="1.45" shape-rendering="geometricPrecision" transform="matrix(1,0,0,1,-7,-112)" stroke-linecap="butt">
      <path fill="none" d="M806.25 205 L815.25 205 L815.25 1093.1666 L806.25 1093.1666 Z" clip-path="url(#clipPath2)"/>
    </g>
    <g fill="url(#linearGradient9)" text-rendering="geometricPrecision" shape-rendering="geometricPrecision" transform="matrix(1,0,0,1,-7,-112)" stroke="url(#linearGradient9)">
      <path d="M584.75 128.25 L677.25 128.25 L677.25 178.25 L584.75 178.25 Z" clip-path="url(#clipPath2)" stroke="none"/>
    </g>
    <g text-rendering="geometricPrecision" stroke-miterlimit="1.45" shape-rendering="geometricPrecision" transform="matrix(1,0,0,1,-7,-112)" stroke-linecap="butt">
      <path fill="none" d="M584.75 128.25 L677.25 128.25 L677.25 178.25 L584.75 178.25 Z" clip-path="url(#clipPath2)"/>
      <text x="605.1572" xml:space="preserve" y="157.7852" font-family="sans-serif" clip-path="url(#clipPath2)" stroke="none">Indexer1</text>
    </g>
    <g fill="url(#linearGradient10)" text-rendering="geometricPrecision" shape-rendering="geometricPrecision" transform="matrix(1,0,0,1,-7,-112)" stroke="url(#linearGradient10)">
      <path d="M763.75 127.25 L856.25 127.25 L856.25 177.25 L763.75 177.25 Z" clip-path="url(#clipPath2)" stroke="none"/>
    </g>
    <g text-rendering="geometricPrecision" stroke-miterlimit="1.45" shape-rendering="geometricPrecision" transform="matrix(1,0,0,1,-7,-112)" stroke-linecap="butt">
      <path fill="none" d="M763.75 127.25 L856.25 127.25 L856.25 177.25 L763.75 177.25 Z" clip-path="url(#clipPath2)"/>
      <text x="784.1572" xml:space="preserve" y="156.7852" font-family="sans-serif" clip-path="url(#clipPath2)" stroke="none">Indexer2</text>
    </g>
    <g text-rendering="geometricPrecision" stroke-miterlimit="1.45" shape-rendering="geometricPrecision" font-family="sans-serif" transform="matrix(1,0,0,1,-7,-112)" stroke-linecap="butt">
      <text x="83.0508" xml:space="preserve" y="225.8438" clip-path="url(#clipPath2)" stroke="none">1. Receive Create</text>
    </g>
    <g text-rendering="geometricPrecision" stroke-miterlimit="1.45" shape-rendering="geometricPrecision" font-family="sans-serif" transform="matrix(1,0,0,1,-7,-112)" stroke-linecap="butt">
      <text x="91.6934" xml:space="preserve" y="239.9766" clip-path="url(#clipPath2)" stroke="none">Index Request</text>
      <text x="82.5391" xml:space="preserve" y="261.0273" clip-path="url(#clipPath2)" stroke="none">2. Generate IndexId, Mark</text>
      <text x="95.5527" xml:space="preserve" y="275.1602" clip-path="url(#clipPath2)" stroke="none">state INIT and update</text>
      <text x="95.7139" xml:space="preserve" y="289.293" clip-path="url(#clipPath2)" stroke="none">StateContext(CAS++)</text>
      <text x="82.4785" xml:space="preserve" y="314.3438" clip-path="url(#clipPath2)" stroke="none">3. Persist StateContext</text>
      <text x="130.2148" xml:space="preserve" y="328.4766" clip-path="url(#clipPath2)" stroke="none">locally</text>
      <text x="83.583" xml:space="preserve" y="353.0938" clip-path="url(#clipPath2)" stroke="none">4. Replicate StateContext</text>
      <text x="97.4492" xml:space="preserve" y="367.2266" clip-path="url(#clipPath2)" stroke="none">to Replica1 and Wait</text>
      <text x="286.5508" xml:space="preserve" y="411.2773" clip-path="url(#clipPath2)" stroke="none">5. Locally Persist</text>
      <text x="270.6689" xml:space="preserve" y="425.4102" clip-path="url(#clipPath2)" stroke="none">New StateContext and</text>
      <text x="324.4053" xml:space="preserve" y="439.543" clip-path="url(#clipPath2)" stroke="none">Ack</text>
      <text x="470.0008" xml:space="preserve" y="515.4774" clip-path="url(#clipPath2)" stroke="none">7. Locally Persist</text>
      <text x="454.119" xml:space="preserve" y="529.6102" clip-path="url(#clipPath2)" stroke="none">New StateContext and</text>
      <text x="507.8553" xml:space="preserve" y="543.743" clip-path="url(#clipPath2)" stroke="none">Ack</text>
      <text x="97.432" xml:space="preserve" y="582.1273" clip-path="url(#clipPath2)" stroke="none">8. Request Index1 to </text>
      <text x="93.682" xml:space="preserve" y="596.2601" clip-path="url(#clipPath2)" stroke="none">process CREATE INDEX</text>
      <text x="78.9457" xml:space="preserve" y="610.3929" clip-path="url(#clipPath2)" stroke="none">(allocate storage, metadata)</text>
      <text x="648.8561" xml:space="preserve" y="636.3273" clip-path="url(#clipPath2)" stroke="none">9. Allocate Storage,</text>
      <text x="656.3004" xml:space="preserve" y="650.4601" clip-path="url(#clipPath2)" stroke="none">Update Metadata</text>
      <text x="682.0934" xml:space="preserve" y="664.593" clip-path="url(#clipPath2)" stroke="none">and Ack</text>
      <text x="93.8881" xml:space="preserve" y="700.1273" clip-path="url(#clipPath2)" stroke="none">10. Request Index2 to </text>
      <text x="93.932" xml:space="preserve" y="714.2601" clip-path="url(#clipPath2)" stroke="none">process CREATE INDEX</text>
      <text x="79.1957" xml:space="preserve" y="728.3929" clip-path="url(#clipPath2)" stroke="none">(allocate storage, metadata)</text>
      <text x="826.2121" xml:space="preserve" y="761.2773" clip-path="url(#clipPath2)" stroke="none">11. Allocate Storage,</text>
      <text x="837.4504" xml:space="preserve" y="775.4102" clip-path="url(#clipPath2)" stroke="none">Update Metadata</text>
      <text x="863.2433" xml:space="preserve" y="789.543" clip-path="url(#clipPath2)" stroke="none">and Ack</text>
      <text x="86.1152" xml:space="preserve" y="832.7109" clip-path="url(#clipPath2)" stroke="none">12. Update Index State </text>
      <text x="101.3145" xml:space="preserve" y="846.8438" clip-path="url(#clipPath2)" stroke="none">to READY, update </text>
      <text x="90.123" xml:space="preserve" y="860.9766" clip-path="url(#clipPath2)" stroke="none">StateContext(CAS++) </text>
      <text x="122.0508" xml:space="preserve" y="875.1094" clip-path="url(#clipPath2)" stroke="none">and persist</text>
      <text x="86.4715" xml:space="preserve" y="1076.0938" clip-path="url(#clipPath2)" stroke="none">17. Return SUCCESS </text>
      <text x="122.6619" xml:space="preserve" y="1090.2266" clip-path="url(#clipPath2)" stroke="none">to client</text>
      <text x="82.233" xml:space="preserve" y="474.5438" clip-path="url(#clipPath2)" stroke="none">6. Replicate StateContext</text>
      <text x="96.0992" xml:space="preserve" y="488.6766" clip-path="url(#clipPath2)" stroke="none">to Replica2 and Wait</text>
      <text x="81.2891" xml:space="preserve" y="897.8438" clip-path="url(#clipPath2)" stroke="none">13. Replicate StateContext</text>
      <text x="98.9492" xml:space="preserve" y="911.9766" clip-path="url(#clipPath2)" stroke="none">to Replica1 and Wait</text>
      <text x="83.3391" xml:space="preserve" y="988.4938" clip-path="url(#clipPath2)" stroke="none">15. Replicate StateContext</text>
      <text x="100.9992" xml:space="preserve" y="1002.6266" clip-path="url(#clipPath2)" stroke="none">to Replica2 and Wait</text>
      <text x="279.2568" xml:space="preserve" y="929.5273" clip-path="url(#clipPath2)" stroke="none">14. Locally Persist</text>
      <text x="267.1689" xml:space="preserve" y="943.6602" clip-path="url(#clipPath2)" stroke="none">New StateContext and</text>
      <text x="320.9053" xml:space="preserve" y="957.793" clip-path="url(#clipPath2)" stroke="none">Ack</text>
      <text x="473.1568" xml:space="preserve" y="1022.6774" clip-path="url(#clipPath2)" stroke="none">16. Locally Persist</text>
      <text x="461.0689" xml:space="preserve" y="1036.8102" clip-path="url(#clipPath2)" stroke="none">New StateContext and</text>
      <text x="514.8053" xml:space="preserve" y="1050.943" clip-path="url(#clipPath2)" stroke="none">Ack</text>
      <path fill="none" d="M74.5119 391.3101 L243.2256 391.5833" clip-path="url(#clipPath2)"/>
      <path d="M251.2256 391.5962 L239.2337 386.5768 L242.2256 391.5816 L239.2175 396.5768 Z" clip-path="url(#clipPath2)" stroke="none"/>
      <path fill="none" d="M74.5246 922.0598 L243.2183 923.1831" clip-path="url(#clipPath2)"/>
      <path d="M251.2181 923.2364 L239.2517 918.1566 L242.2183 923.1765 L239.1851 928.1564 Z" clip-path="url(#clipPath2)" stroke="none"/>
      <path fill="none" d="M251.2127 441.716 L82.5244 441.2755" clip-path="url(#clipPath2)"/>
      <path d="M74.5244 441.2546 L86.5113 446.2859 L83.5244 441.2781 L86.5374 436.2859 Z" clip-path="url(#clipPath2)" stroke="none"/>
      <path fill="none" d="M251.2366 954.1266 L84.2499 953.3212" clip-path="url(#clipPath2)"/>
      <path d="M76.25 953.2826 L88.2258 958.3404 L85.2499 953.326 L88.274 948.3405 Z" clip-path="url(#clipPath2)" stroke="none"/>
      <path fill="none" d="M74.5091 503.4351 L430.9721 503.4791" clip-path="url(#clipPath2)"/>
      <path d="M438.9721 503.4801 L426.9727 498.4786 L429.9721 503.479 L426.9715 508.4786 Z" clip-path="url(#clipPath2)" stroke="none"/>
      <path fill="none" d="M74.5043 1016.2943 L429.5 1017.4016" clip-path="url(#clipPath2)"/>
      <path d="M437.5 1017.4266 L425.5157 1012.3892 L428.5 1017.3985 L425.4845 1022.3891 Z" clip-path="url(#clipPath2)" stroke="none"/>
      <path fill="none" d="M438.9758 549.0532 L256.7343 549.7833 L82.5381 548.8814" clip-path="url(#clipPath2)"/>
      <path d="M74.5382 548.84 L86.5122 553.902 L83.5381 548.8866 L86.564 543.9022 Z" clip-path="url(#clipPath2)" stroke="none"/>
      <path fill="none" d="M438.9633 1046.1836 L256.747 1044.811 L82.5256 1045.0073" clip-path="url(#clipPath2)"/>
      <path d="M74.5256 1045.0164 L86.5312 1050.0028 L83.5256 1045.0062 L86.5199 1040.0028 Z" clip-path="url(#clipPath2)" stroke="none"/>
      <path fill="none" d="M74.5298 624.8625 L621.4785 624.2718" clip-path="url(#clipPath2)"/>
      <path d="M629.4785 624.2631 L617.473 619.2761 L620.4785 624.2729 L617.4839 629.2761 Z" clip-path="url(#clipPath2)" stroke="none"/>
      <path fill="none" d="M629.4868 675.6899 L82.5224 675.3109" clip-path="url(#clipPath2)"/>
      <path d="M74.5224 675.3053 L86.5189 680.3136 L83.5224 675.3115 L86.5259 670.3137 Z" clip-path="url(#clipPath2)" stroke="none"/>
      <path fill="none" d="M74.5328 743.0313 L798.2012 744.6053" clip-path="url(#clipPath2)"/>
      <path d="M806.2012 744.6227 L794.2121 739.5967 L797.2012 744.6031 L794.1903 749.5966 Z" clip-path="url(#clipPath2)" stroke="none"/>
      <path fill="none" d="M806.2424 804.3315 L440.3872 806.2407 L82.5276 805.6259" clip-path="url(#clipPath2)"/>
      <path d="M74.5277 805.6122 L86.5191 810.6328 L83.5276 805.6276 L86.5362 800.6328 Z" clip-path="url(#clipPath2)" stroke="none"/>
    </g>
  </g>
</svg>
