<?xml version="1.0" encoding="UTF-8"?>
<svg xmlns="http://www.w3.org/2000/svg" xmlns:xlink="http://www.w3.org/1999/xlink" fill-opacity="1" color-rendering="auto" color-interpolation="auto" stroke="black" text-rendering="auto" stroke-linecap="square" width="857" stroke-miterlimit="10" stroke-opacity="1" shape-rendering="auto" fill="black" stroke-dasharray="none" font-weight="normal" stroke-width="1" height="914" font-family="'Dialog'" font-style="normal" stroke-linejoin="miter" font-size="12" stroke-dashoffset="0" image-rendering="auto">
  <!--Generated by ySVG 2.5-->
  <defs id="genericDefs"/>
  <g>
    <defs id="defs1">
      <linearGradient x1="163" gradientUnits="userSpaceOnUse" x2="172" y1="177.75" y2="985.4167" id="linearGradient1" spreadMethod="reflect">
        <stop stop-opacity="1" stop-color="rgb(232,238,247)" offset="0%"/>
        <stop stop-opacity="1" stop-color="rgb(183,201,227)" offset="100%"/>
      </linearGradient>
      <linearGradient x1="128" gradientUnits="userSpaceOnUse" x2="208" y1="107.75" y2="147.75" id="linearGradient2" spreadMethod="reflect">
        <stop stop-opacity="1" stop-color="rgb(232,238,247)" offset="0%"/>
        <stop stop-opacity="1" stop-color="rgb(183,201,227)" offset="100%"/>
      </linearGradient>
      <linearGradient x1="365" gradientUnits="userSpaceOnUse" x2="374" y1="175.75" y2="979.1667" id="linearGradient3" spreadMethod="reflect">
        <stop stop-opacity="1" stop-color="rgb(232,238,247)" offset="0%"/>
        <stop stop-opacity="1" stop-color="rgb(183,201,227)" offset="100%"/>
      </linearGradient>
      <linearGradient x1="322.5" gradientUnits="userSpaceOnUse" x2="415" y1="102" y2="152" id="linearGradient4" spreadMethod="reflect">
        <stop stop-opacity="1" stop-color="rgb(232,238,247)" offset="0%"/>
        <stop stop-opacity="1" stop-color="rgb(183,201,227)" offset="100%"/>
      </linearGradient>
      <linearGradient x1="574" gradientUnits="userSpaceOnUse" x2="583" y1="182" y2="972.1667" id="linearGradient5" spreadMethod="reflect">
        <stop stop-opacity="1" stop-color="rgb(232,238,247)" offset="0%"/>
        <stop stop-opacity="1" stop-color="rgb(183,201,227)" offset="100%"/>
      </linearGradient>
      <linearGradient x1="539" gradientUnits="userSpaceOnUse" x2="619" y1="105.75" y2="145.75" id="linearGradient6" spreadMethod="reflect">
        <stop stop-opacity="1" stop-color="rgb(232,238,247)" offset="0%"/>
        <stop stop-opacity="1" stop-color="rgb(183,201,227)" offset="100%"/>
      </linearGradient>
      <linearGradient x1="779.5" gradientUnits="userSpaceOnUse" x2="788.5" y1="178.75" y2="971.9167" id="linearGradient7" spreadMethod="reflect">
        <stop stop-opacity="1" stop-color="rgb(232,238,247)" offset="0%"/>
        <stop stop-opacity="1" stop-color="rgb(183,201,227)" offset="100%"/>
      </linearGradient>
      <linearGradient x1="744.5" gradientUnits="userSpaceOnUse" x2="824.5" y1="102.5" y2="142.5" id="linearGradient8" spreadMethod="reflect">
        <stop stop-opacity="1" stop-color="rgb(232,238,247)" offset="0%"/>
        <stop stop-opacity="1" stop-color="rgb(183,201,227)" offset="100%"/>
      </linearGradient>
      <clipPath clipPathUnits="userSpaceOnUse" id="clipPath1">
        <path d="M0 0 L857 0 L857 914 L0 914 L0 0 Z"/>
      </clipPath>
      <clipPath clipPathUnits="userSpaceOnUse" id="clipPath2">
        <path d="M113 87 L970 87 L970 1001 L113 1001 L113 87 Z"/>
      </clipPath>
    </defs>
    <g fill="white" text-rendering="geometricPrecision" shape-rendering="geometricPrecision" transform="translate(-113,-87)" stroke="white">
      <rect x="113" width="857" height="914" y="87" clip-path="url(#clipPath2)" stroke="none"/>
    </g>
    <g fill="url(#linearGradient1)" text-rendering="geometricPrecision" shape-rendering="geometricPrecision" transform="matrix(1,0,0,1,-113,-87)" stroke="url(#linearGradient1)">
      <path d="M163 177.75 L172 177.75 L172 985.4167 L163 985.4167 Z" clip-path="url(#clipPath2)" stroke="none"/>
    </g>
    <g text-rendering="geometricPrecision" stroke-miterlimit="1.45" shape-rendering="geometricPrecision" transform="matrix(1,0,0,1,-113,-87)" stroke-linecap="butt">
      <path fill="none" d="M163 177.75 L172 177.75 L172 985.4167 L163 985.4167 Z" clip-path="url(#clipPath2)"/>
    </g>
    <g fill="url(#linearGradient2)" text-rendering="geometricPrecision" shape-rendering="geometricPrecision" transform="matrix(1,0,0,1,-113,-87)" stroke="url(#linearGradient2)">
      <path d="M128 107.75 L208 107.75 L208 147.75 L128 147.75 Z" clip-path="url(#clipPath2)" stroke="none"/>
    </g>
    <g text-rendering="geometricPrecision" stroke-miterlimit="1.45" shape-rendering="geometricPrecision" transform="matrix(1,0,0,1,-113,-87)" stroke-linecap="butt">
      <path fill="none" d="M128 107.75 L208 107.75 L208 147.75 L128 147.75 Z" clip-path="url(#clipPath2)"/>
      <text x="151.749" xml:space="preserve" y="125.2188" font-family="sans-serif" clip-path="url(#clipPath2)" stroke="none">Index</text>
      <text x="151.0693" xml:space="preserve" y="139.3516" font-family="sans-serif" clip-path="url(#clipPath2)" stroke="none">Client</text>
    </g>
    <g fill="url(#linearGradient3)" text-rendering="geometricPrecision" shape-rendering="geometricPrecision" transform="matrix(1,0,0,1,-113,-87)" stroke="url(#linearGradient3)">
      <path d="M365 175.75 L374 175.75 L374 979.1667 L365 979.1667 Z" clip-path="url(#clipPath2)" stroke="none"/>
    </g>
    <g text-rendering="geometricPrecision" stroke-miterlimit="1.45" shape-rendering="geometricPrecision" transform="matrix(1,0,0,1,-113,-87)" stroke-linecap="butt">
      <path fill="none" d="M365 175.75 L374 175.75 L374 979.1667 L365 979.1667 Z" clip-path="url(#clipPath2)"/>
    </g>
    <g fill="url(#linearGradient4)" text-rendering="geometricPrecision" shape-rendering="geometricPrecision" transform="matrix(1,0,0,1,-113,-87)" stroke="url(#linearGradient4)">
      <path d="M322.5 102 L415 102 L415 152 L322.5 152 Z" clip-path="url(#clipPath2)" stroke="none"/>
    </g>
    <g text-rendering="geometricPrecision" stroke-miterlimit="1.45" shape-rendering="geometricPrecision" transform="matrix(1,0,0,1,-113,-87)" stroke-linecap="butt">
      <path fill="none" d="M322.5 102 L415 102 L415 152 L322.5 152 Z" clip-path="url(#clipPath2)"/>
      <text x="342.9072" xml:space="preserve" y="117.4023" font-family="sans-serif" clip-path="url(#clipPath2)" stroke="none">Indexer1</text>
      <text x="353.457" xml:space="preserve" y="131.5352" font-family="sans-serif" clip-path="url(#clipPath2)" stroke="none">(Scan</text>
      <text x="331.8887" xml:space="preserve" y="145.668" font-family="sans-serif" clip-path="url(#clipPath2)" stroke="none">Coordinator)</text>
    </g>
    <g fill="url(#linearGradient5)" text-rendering="geometricPrecision" shape-rendering="geometricPrecision" transform="matrix(1,0,0,1,-113,-87)" stroke="url(#linearGradient5)">
      <path d="M574 182 L583 182 L583 972.1667 L574 972.1667 Z" clip-path="url(#clipPath2)" stroke="none"/>
    </g>
    <g text-rendering="geometricPrecision" stroke-miterlimit="1.45" shape-rendering="geometricPrecision" transform="matrix(1,0,0,1,-113,-87)" stroke-linecap="butt">
      <path fill="none" d="M574 182 L583 182 L583 972.1667 L574 972.1667 Z" clip-path="url(#clipPath2)"/>
    </g>
    <g fill="url(#linearGradient6)" text-rendering="geometricPrecision" shape-rendering="geometricPrecision" transform="matrix(1,0,0,1,-113,-87)" stroke="url(#linearGradient6)">
      <path d="M539 105.75 L619 105.75 L619 145.75 L539 145.75 Z" clip-path="url(#clipPath2)" stroke="none"/>
    </g>
    <g text-rendering="geometricPrecision" stroke-miterlimit="1.45" shape-rendering="geometricPrecision" transform="matrix(1,0,0,1,-113,-87)" stroke-linecap="butt">
      <path fill="none" d="M539 105.75 L619 105.75 L619 145.75 L539 145.75 Z" clip-path="url(#clipPath2)"/>
      <text x="553.1572" xml:space="preserve" y="130.2852" font-family="sans-serif" clip-path="url(#clipPath2)" stroke="none">Indexer2</text>
    </g>
    <g text-rendering="geometricPrecision" stroke-miterlimit="1.45" shape-rendering="geometricPrecision" font-family="sans-serif" transform="matrix(1,0,0,1,-113,-87)" stroke-linecap="butt">
      <text x="177.2529" xml:space="preserve" y="213.5352" clip-path="url(#clipPath2)" stroke="none">1. Receive Scan Request</text>
    </g>
    <g text-rendering="geometricPrecision" stroke-miterlimit="1.45" shape-rendering="geometricPrecision" font-family="sans-serif" transform="matrix(1,0,0,1,-113,-87)" stroke-linecap="butt">
      <text x="176.8145" xml:space="preserve" y="247.2852" clip-path="url(#clipPath2)" stroke="none">2. Choose Indexer</text>
      <text x="177.9596" xml:space="preserve" y="319.2852" clip-path="url(#clipPath2)" stroke="none">4. Send to Indexer</text>
      <text x="177.1693" xml:space="preserve" y="274.8188" clip-path="url(#clipPath2)" stroke="none">3. Choose Stability/</text>
      <text x="177.9457" xml:space="preserve" y="288.9516" clip-path="url(#clipPath2)" stroke="none">Consistency Option</text>
      <text x="381.7879" xml:space="preserve" y="376.2188" clip-path="url(#clipPath2)" stroke="none">5. Request Index Manager for</text>
      <text x="381.7879" xml:space="preserve" y="390.3516" clip-path="url(#clipPath2)" stroke="none">index topology</text>
      <text x="390.256" xml:space="preserve" y="503.2188" clip-path="url(#clipPath2)" stroke="none">7. Request Index Manager </text>
      <text x="390.256" xml:space="preserve" y="517.3516" clip-path="url(#clipPath2)" stroke="none">for Stability Timestamp</text>
    </g>
    <g fill="url(#linearGradient7)" text-rendering="geometricPrecision" shape-rendering="geometricPrecision" transform="matrix(1,0,0,1,-113,-87)" stroke="url(#linearGradient7)">
      <path d="M779.5 178.75 L788.5 178.75 L788.5 971.9167 L779.5 971.9167 Z" clip-path="url(#clipPath2)" stroke="none"/>
    </g>
    <g text-rendering="geometricPrecision" stroke-miterlimit="1.45" shape-rendering="geometricPrecision" transform="matrix(1,0,0,1,-113,-87)" stroke-linecap="butt">
      <path fill="none" d="M779.5 178.75 L788.5 178.75 L788.5 971.9167 L779.5 971.9167 Z" clip-path="url(#clipPath2)"/>
    </g>
    <g fill="url(#linearGradient8)" text-rendering="geometricPrecision" shape-rendering="geometricPrecision" transform="matrix(1,0,0,1,-113,-87)" stroke="url(#linearGradient8)">
      <path d="M744.5 102.5 L824.5 102.5 L824.5 142.5 L744.5 142.5 Z" clip-path="url(#clipPath2)" stroke="none"/>
    </g>
    <g text-rendering="geometricPrecision" stroke-miterlimit="1.45" shape-rendering="geometricPrecision" transform="matrix(1,0,0,1,-113,-87)" stroke-linecap="butt">
      <path fill="none" d="M744.5 102.5 L824.5 102.5 L824.5 142.5 L744.5 142.5 Z" clip-path="url(#clipPath2)"/>
      <text x="768.249" xml:space="preserve" y="119.9688" font-family="sans-serif" clip-path="url(#clipPath2)" stroke="none">Index</text>
      <text x="759.4424" xml:space="preserve" y="134.1016" font-family="sans-serif" clip-path="url(#clipPath2)" stroke="none">Manager</text>
    </g>
    <g text-rendering="geometricPrecision" stroke-miterlimit="1.45" shape-rendering="geometricPrecision" font-family="sans-serif" transform="matrix(1,0,0,1,-113,-87)" stroke-linecap="butt">
      <text x="807.4138" xml:space="preserve" y="430.9688" clip-path="url(#clipPath2)" stroke="none">6. Return Index topology</text>
      <text x="807.4138" xml:space="preserve" y="445.1016" clip-path="url(#clipPath2)" stroke="none">information</text>
      <text x="806.5532" xml:space="preserve" y="550.3688" clip-path="url(#clipPath2)" stroke="none">8. Return Latest </text>
      <text x="806.5532" xml:space="preserve" y="564.5016" clip-path="url(#clipPath2)" stroke="none">Stability Timestamp</text>
      <text x="379.6037" xml:space="preserve" y="642.0687" clip-path="url(#clipPath2)" stroke="none">10. Request participating </text>
      <text x="379.6037" xml:space="preserve" y="656.2015" clip-path="url(#clipPath2)" stroke="none">Indexers to Scan</text>
      <text x="380.8734" xml:space="preserve" y="591.6024" clip-path="url(#clipPath2)" stroke="none">9. Decide Scan Timestamp </text>
      <text x="380.8734" xml:space="preserve" y="605.7352" clip-path="url(#clipPath2)" stroke="none">based on Consistency/</text>
      <text x="380.8734" xml:space="preserve" y="619.868" clip-path="url(#clipPath2)" stroke="none">Stability Options</text>
      <text x="589.2665" xml:space="preserve" y="703.5187" clip-path="url(#clipPath2)" stroke="none">11. Find slices to run</text>
      <text x="589.2665" xml:space="preserve" y="717.6516" clip-path="url(#clipPath2)" stroke="none">Scan</text>
      <text x="591.4911" xml:space="preserve" y="805.1351" clip-path="url(#clipPath2)" stroke="none">13. Return Results</text>
      <text x="380.2264" xml:space="preserve" y="865.2352" clip-path="url(#clipPath2)" stroke="none">14. Aggregate Results</text>
      <text x="381.441" xml:space="preserve" y="910.8688" clip-path="url(#clipPath2)" stroke="none">15. Return consolidated </text>
      <text x="381.441" xml:space="preserve" y="925.0016" clip-path="url(#clipPath2)" stroke="none">Results</text>
      <text x="589.1855" xml:space="preserve" y="755.5687" clip-path="url(#clipPath2)" stroke="none">12. Run Local Index </text>
      <text x="589.1855" xml:space="preserve" y="769.7015" clip-path="url(#clipPath2)" stroke="none">Scan</text>
      <text x="382.5302" xml:space="preserve" y="703.0687" clip-path="url(#clipPath2)" stroke="none">11. Find slices to run</text>
      <text x="382.5302" xml:space="preserve" y="717.2015" clip-path="url(#clipPath2)" stroke="none">Scan</text>
      <text x="384.7547" xml:space="preserve" y="804.6852" clip-path="url(#clipPath2)" stroke="none">13. Return Results</text>
      <text x="382.449" xml:space="preserve" y="755.1188" clip-path="url(#clipPath2)" stroke="none">12. Run Local Index </text>
      <text x="382.449" xml:space="preserve" y="769.2516" clip-path="url(#clipPath2)" stroke="none">Scan</text>
      <path fill="none" d="M172.0234 348.3124 L356.965 345.7719" clip-path="url(#clipPath2)"/>
      <path d="M364.9642 345.662 L352.8966 340.8273 L355.9651 345.7856 L353.034 350.8264 Z" clip-path="url(#clipPath2)" stroke="none"/>
      <path fill="none" d="M360.5 700.75 L330.6954 714.7047 L319.0465 721.5374 L309.5666 728.2735 L302.2556 734.9131 L297.1136 741.4562 L294.1406 747.9028 L293.3365 754.2529 L294.7013 760.5066 L298.2351 766.6637 L303.9379 772.7243 L311.8096 778.6884 L321.8503 784.556 L334.0599 790.3271 L357.4683 798.8445" clip-path="url(#clipPath2)"/>
      <path d="M364.9861 801.5799 L355.419 792.7781 L356.5285 798.5026 L351.9997 802.1754 Z" clip-path="url(#clipPath2)" stroke="none"/>
      <path fill="none" d="M374.0125 673.0173 L474.01 673.0173 L566.0135 673.4944" clip-path="url(#clipPath2)"/>
      <path d="M574.0134 673.5358 L562.0395 668.4738 L565.0135 673.4892 L561.9877 678.4736 Z" clip-path="url(#clipPath2)" stroke="none"/>
      <path fill="none" d="M583.0099 821.4279 L474 821.4279 L382.0012 821.6415" clip-path="url(#clipPath2)"/>
      <path d="M374.0012 821.6601 L386.0128 826.6323 L383.0012 821.6392 L385.9896 816.6323 Z" clip-path="url(#clipPath2)" stroke="none"/>
      <path fill="none" d="M373.9796 411.5679 L574.5117 411.5679 L574.5117 411.6256 L771.4984 411.6256" clip-path="url(#clipPath2)"/>
      <path d="M779.4984 411.6256 L767.4984 406.6256 L770.4984 411.6256 L767.4984 416.6256 Z" clip-path="url(#clipPath2)" stroke="none"/>
      <path fill="none" d="M374.0234 537.9573 L580 537.9573 L771.4871 537.5035" clip-path="url(#clipPath2)"/>
      <path d="M779.4871 537.4846 L767.4752 532.5131 L770.4871 537.5059 L767.499 542.513 Z" clip-path="url(#clipPath2)" stroke="none"/>
      <path fill="none" d="M779.5221 468.9528 L576.75 468.9528 L576.75 468.9369 L381.9779 468.9369" clip-path="url(#clipPath2)"/>
      <path d="M373.9779 468.9369 L385.9779 473.9369 L382.9779 468.9369 L385.9779 463.9369 Z" clip-path="url(#clipPath2)" stroke="none"/>
      <path fill="none" d="M779.4813 569.7564 L382.02 569.7564" clip-path="url(#clipPath2)"/>
      <path d="M374.02 569.7564 L386.02 574.7564 L383.02 569.7564 L386.02 564.7564 Z" clip-path="url(#clipPath2)" stroke="none"/>
    </g>
  </g>
</svg>
